<?xml version="1.0" encoding="UTF-8"?> <svg xmlns="http://www.w3.org/2000/svg" id="Layer_1" data-name="Layer 1" viewBox="0 0 300 300"><defs><style>.cls-1{fill:none;stroke:#bc9c5c;stroke-miterlimit:10;stroke-width:3px;}</style></defs><title>Market Performance</title><circle class="cls-1" cx="149.78" cy="150.08" r="147.92"></circle><path class="cls-1" d="M176.31,139.31a26.12,26.12,0,1,1-5.46-7.12"></path><path class="cls-1" d="M196.64,123a52,52,0,1,1-4.75-6.19"></path><path class="cls-1" d="M218.36,105.62a79.58,79.58,0,1,1-4-5.18"></path><path class="cls-1" d="M224.4,100.8,158,153.9s-5.1,4.48-8.63.95a4.86,4.86,0,0,1-1.35-3.46c0-2.36,1.55-3.74,3.16-4.9l69.52-50.67"></path><polyline class="cls-1" points="220.12 96.58 223.99 85.79 248.17 66.42 243.9 83.15 261.26 82.75 235.13 101.72 223.22 101.18"></polyline></svg> 